<mxfile host="app.diagrams.net" modified="2024-06-11T00:55:18.313Z" agent="Mozilla/5.0 (Windows NT 10.0; Win64; x64) AppleWebKit/537.36 (KHTML, like Gecko) Chrome/125.0.0.0 Safari/537.36" etag="3WOsfL8QOJYnXW1EyOPK" version="24.5.2" type="device">
  <diagram name="Página-1" id="CJAZAIpfjAzhSEw6AVTg">
    <mxGraphModel dx="1301" dy="1809" grid="1" gridSize="10" guides="1" tooltips="1" connect="1" arrows="1" fold="1" page="1" pageScale="1" pageWidth="827" pageHeight="1169" math="0" shadow="0">
      <root>
        <mxCell id="0" />
        <mxCell id="1" parent="0" />
        <mxCell id="j923q_v8Hhribv1rcpgO-5" style="edgeStyle=orthogonalEdgeStyle;rounded=0;orthogonalLoop=1;jettySize=auto;html=1;" edge="1" parent="1" source="j923q_v8Hhribv1rcpgO-1" target="j923q_v8Hhribv1rcpgO-2">
          <mxGeometry relative="1" as="geometry" />
        </mxCell>
        <mxCell id="j923q_v8Hhribv1rcpgO-1" value="Média das notas (Lista)" style="rounded=1;whiteSpace=wrap;html=1;" vertex="1" parent="1">
          <mxGeometry x="90" y="190" width="120" height="60" as="geometry" />
        </mxCell>
        <mxCell id="j923q_v8Hhribv1rcpgO-6" style="edgeStyle=orthogonalEdgeStyle;rounded=0;orthogonalLoop=1;jettySize=auto;html=1;" edge="1" parent="1" source="j923q_v8Hhribv1rcpgO-2" target="j923q_v8Hhribv1rcpgO-4">
          <mxGeometry relative="1" as="geometry" />
        </mxCell>
        <mxCell id="j923q_v8Hhribv1rcpgO-2" value="Desempate 1" style="rounded=1;whiteSpace=wrap;html=1;" vertex="1" parent="1">
          <mxGeometry x="90" y="280" width="120" height="60" as="geometry" />
        </mxCell>
        <mxCell id="j923q_v8Hhribv1rcpgO-3" value="Desempate 3" style="rounded=1;whiteSpace=wrap;html=1;" vertex="1" parent="1">
          <mxGeometry x="90" y="470" width="120" height="60" as="geometry" />
        </mxCell>
        <mxCell id="j923q_v8Hhribv1rcpgO-7" style="edgeStyle=orthogonalEdgeStyle;rounded=0;orthogonalLoop=1;jettySize=auto;html=1;" edge="1" parent="1" source="j923q_v8Hhribv1rcpgO-4" target="j923q_v8Hhribv1rcpgO-3">
          <mxGeometry relative="1" as="geometry" />
        </mxCell>
        <mxCell id="j923q_v8Hhribv1rcpgO-4" value="Desempate 2" style="rounded=1;whiteSpace=wrap;html=1;" vertex="1" parent="1">
          <mxGeometry x="90" y="370" width="120" height="60" as="geometry" />
        </mxCell>
        <mxCell id="j923q_v8Hhribv1rcpgO-10" style="edgeStyle=orthogonalEdgeStyle;rounded=0;orthogonalLoop=1;jettySize=auto;html=1;" edge="1" parent="1" source="j923q_v8Hhribv1rcpgO-8" target="j923q_v8Hhribv1rcpgO-9">
          <mxGeometry relative="1" as="geometry" />
        </mxCell>
        <mxCell id="j923q_v8Hhribv1rcpgO-11" style="edgeStyle=orthogonalEdgeStyle;rounded=0;orthogonalLoop=1;jettySize=auto;html=1;" edge="1" parent="1" source="j923q_v8Hhribv1rcpgO-8" target="j923q_v8Hhribv1rcpgO-1">
          <mxGeometry relative="1" as="geometry" />
        </mxCell>
        <mxCell id="j923q_v8Hhribv1rcpgO-8" value="Gerenciamento de vagas" style="rounded=1;whiteSpace=wrap;html=1;" vertex="1" parent="1">
          <mxGeometry x="280" y="190" width="120" height="60" as="geometry" />
        </mxCell>
        <mxCell id="j923q_v8Hhribv1rcpgO-12" style="edgeStyle=orthogonalEdgeStyle;rounded=0;orthogonalLoop=1;jettySize=auto;html=1;" edge="1" parent="1" source="j923q_v8Hhribv1rcpgO-9" target="j923q_v8Hhribv1rcpgO-2">
          <mxGeometry relative="1" as="geometry" />
        </mxCell>
        <mxCell id="j923q_v8Hhribv1rcpgO-9" value="Fila de espera" style="rounded=1;whiteSpace=wrap;html=1;" vertex="1" parent="1">
          <mxGeometry x="280" y="280" width="120" height="60" as="geometry" />
        </mxCell>
        <mxCell id="j923q_v8Hhribv1rcpgO-14" style="edgeStyle=orthogonalEdgeStyle;rounded=0;orthogonalLoop=1;jettySize=auto;html=1;" edge="1" parent="1" source="j923q_v8Hhribv1rcpgO-13" target="j923q_v8Hhribv1rcpgO-8">
          <mxGeometry relative="1" as="geometry" />
        </mxCell>
        <mxCell id="j923q_v8Hhribv1rcpgO-13" value="Seleção de curso" style="rounded=1;whiteSpace=wrap;html=1;" vertex="1" parent="1">
          <mxGeometry x="280" y="100" width="120" height="60" as="geometry" />
        </mxCell>
        <mxCell id="j923q_v8Hhribv1rcpgO-16" style="edgeStyle=orthogonalEdgeStyle;rounded=0;orthogonalLoop=1;jettySize=auto;html=1;entryX=0.5;entryY=0;entryDx=0;entryDy=0;" edge="1" parent="1" source="j923q_v8Hhribv1rcpgO-15" target="j923q_v8Hhribv1rcpgO-17">
          <mxGeometry relative="1" as="geometry" />
        </mxCell>
        <mxCell id="j923q_v8Hhribv1rcpgO-15" value="Leitura do arquivo" style="rounded=1;whiteSpace=wrap;html=1;" vertex="1" parent="1">
          <mxGeometry x="470" y="150" width="120" height="60" as="geometry" />
        </mxCell>
        <mxCell id="j923q_v8Hhribv1rcpgO-19" style="edgeStyle=orthogonalEdgeStyle;rounded=0;orthogonalLoop=1;jettySize=auto;html=1;" edge="1" parent="1" source="j923q_v8Hhribv1rcpgO-17" target="j923q_v8Hhribv1rcpgO-9">
          <mxGeometry relative="1" as="geometry" />
        </mxCell>
        <mxCell id="j923q_v8Hhribv1rcpgO-17" value="Seleção de nota de corte (algoritmo de ordenação)" style="rounded=1;whiteSpace=wrap;html=1;" vertex="1" parent="1">
          <mxGeometry x="470" y="280" width="120" height="60" as="geometry" />
        </mxCell>
        <mxCell id="j923q_v8Hhribv1rcpgO-52" style="edgeStyle=orthogonalEdgeStyle;rounded=0;orthogonalLoop=1;jettySize=auto;html=1;entryX=0.5;entryY=0;entryDx=0;entryDy=0;" edge="1" parent="1" source="j923q_v8Hhribv1rcpgO-20" target="j923q_v8Hhribv1rcpgO-15">
          <mxGeometry relative="1" as="geometry" />
        </mxCell>
        <mxCell id="j923q_v8Hhribv1rcpgO-20" value="Candidato" style="swimlane;fontStyle=1;align=center;verticalAlign=top;childLayout=stackLayout;horizontal=1;startSize=30;horizontalStack=0;resizeParent=1;resizeParentMax=0;resizeLast=0;collapsible=1;marginBottom=0;whiteSpace=wrap;html=1;" vertex="1" parent="1">
          <mxGeometry x="450" y="-120" width="160" height="194" as="geometry">
            <mxRectangle x="750" y="100" width="100" height="30" as="alternateBounds" />
          </mxGeometry>
        </mxCell>
        <mxCell id="j923q_v8Hhribv1rcpgO-21" value="id: int" style="text;strokeColor=none;fillColor=none;align=left;verticalAlign=top;spacingLeft=4;spacingRight=4;overflow=hidden;rotatable=0;points=[[0,0.5],[1,0.5]];portConstraint=eastwest;whiteSpace=wrap;html=1;" vertex="1" parent="j923q_v8Hhribv1rcpgO-20">
          <mxGeometry y="30" width="160" height="26" as="geometry" />
        </mxCell>
        <mxCell id="j923q_v8Hhribv1rcpgO-22" value="" style="line;strokeWidth=1;fillColor=none;align=left;verticalAlign=middle;spacingTop=-1;spacingLeft=3;spacingRight=3;rotatable=0;labelPosition=right;points=[];portConstraint=eastwest;strokeColor=inherit;" vertex="1" parent="j923q_v8Hhribv1rcpgO-20">
          <mxGeometry y="56" width="160" height="8" as="geometry" />
        </mxCell>
        <mxCell id="j923q_v8Hhribv1rcpgO-23" value="nome" style="text;strokeColor=none;fillColor=none;align=left;verticalAlign=top;spacingLeft=4;spacingRight=4;overflow=hidden;rotatable=0;points=[[0,0.5],[1,0.5]];portConstraint=eastwest;whiteSpace=wrap;html=1;" vertex="1" parent="j923q_v8Hhribv1rcpgO-20">
          <mxGeometry y="64" width="160" height="26" as="geometry" />
        </mxCell>
        <mxCell id="j923q_v8Hhribv1rcpgO-26" value="média" style="text;strokeColor=none;fillColor=none;align=left;verticalAlign=top;spacingLeft=4;spacingRight=4;overflow=hidden;rotatable=0;points=[[0,0.5],[1,0.5]];portConstraint=eastwest;whiteSpace=wrap;html=1;" vertex="1" parent="j923q_v8Hhribv1rcpgO-20">
          <mxGeometry y="90" width="160" height="26" as="geometry" />
        </mxCell>
        <mxCell id="j923q_v8Hhribv1rcpgO-27" value="redação" style="text;strokeColor=none;fillColor=none;align=left;verticalAlign=top;spacingLeft=4;spacingRight=4;overflow=hidden;rotatable=0;points=[[0,0.5],[1,0.5]];portConstraint=eastwest;whiteSpace=wrap;html=1;" vertex="1" parent="j923q_v8Hhribv1rcpgO-20">
          <mxGeometry y="116" width="160" height="26" as="geometry" />
        </mxCell>
        <mxCell id="j923q_v8Hhribv1rcpgO-28" value="matematica" style="text;strokeColor=none;fillColor=none;align=left;verticalAlign=top;spacingLeft=4;spacingRight=4;overflow=hidden;rotatable=0;points=[[0,0.5],[1,0.5]];portConstraint=eastwest;whiteSpace=wrap;html=1;" vertex="1" parent="j923q_v8Hhribv1rcpgO-20">
          <mxGeometry y="142" width="160" height="26" as="geometry" />
        </mxCell>
        <mxCell id="j923q_v8Hhribv1rcpgO-29" value="linguagens" style="text;strokeColor=none;fillColor=none;align=left;verticalAlign=top;spacingLeft=4;spacingRight=4;overflow=hidden;rotatable=0;points=[[0,0.5],[1,0.5]];portConstraint=eastwest;whiteSpace=wrap;html=1;" vertex="1" parent="j923q_v8Hhribv1rcpgO-20">
          <mxGeometry y="168" width="160" height="26" as="geometry" />
        </mxCell>
        <mxCell id="j923q_v8Hhribv1rcpgO-49" style="edgeStyle=orthogonalEdgeStyle;rounded=0;orthogonalLoop=1;jettySize=auto;html=1;" edge="1" parent="1" source="j923q_v8Hhribv1rcpgO-30" target="j923q_v8Hhribv1rcpgO-45">
          <mxGeometry relative="1" as="geometry" />
        </mxCell>
        <mxCell id="j923q_v8Hhribv1rcpgO-50" style="edgeStyle=orthogonalEdgeStyle;rounded=0;orthogonalLoop=1;jettySize=auto;html=1;entryX=1;entryY=0.5;entryDx=0;entryDy=0;" edge="1" parent="1" source="j923q_v8Hhribv1rcpgO-30" target="j923q_v8Hhribv1rcpgO-15">
          <mxGeometry relative="1" as="geometry" />
        </mxCell>
        <mxCell id="j923q_v8Hhribv1rcpgO-30" value="Concurso" style="swimlane;fontStyle=1;align=center;verticalAlign=top;childLayout=stackLayout;horizontal=1;startSize=26;horizontalStack=0;resizeParent=1;resizeParentMax=0;resizeLast=0;collapsible=1;marginBottom=0;whiteSpace=wrap;html=1;" vertex="1" parent="1">
          <mxGeometry x="667" y="137" width="160" height="86" as="geometry" />
        </mxCell>
        <mxCell id="j923q_v8Hhribv1rcpgO-31" value="nome" style="text;strokeColor=none;fillColor=none;align=left;verticalAlign=top;spacingLeft=4;spacingRight=4;overflow=hidden;rotatable=0;points=[[0,0.5],[1,0.5]];portConstraint=eastwest;whiteSpace=wrap;html=1;" vertex="1" parent="j923q_v8Hhribv1rcpgO-30">
          <mxGeometry y="26" width="160" height="26" as="geometry" />
        </mxCell>
        <mxCell id="j923q_v8Hhribv1rcpgO-32" value="" style="line;strokeWidth=1;fillColor=none;align=left;verticalAlign=middle;spacingTop=-1;spacingLeft=3;spacingRight=3;rotatable=0;labelPosition=right;points=[];portConstraint=eastwest;strokeColor=inherit;" vertex="1" parent="j923q_v8Hhribv1rcpgO-30">
          <mxGeometry y="52" width="160" height="8" as="geometry" />
        </mxCell>
        <mxCell id="j923q_v8Hhribv1rcpgO-33" value="cursos: Curso" style="text;strokeColor=none;fillColor=none;align=left;verticalAlign=top;spacingLeft=4;spacingRight=4;overflow=hidden;rotatable=0;points=[[0,0.5],[1,0.5]];portConstraint=eastwest;whiteSpace=wrap;html=1;" vertex="1" parent="j923q_v8Hhribv1rcpgO-30">
          <mxGeometry y="60" width="160" height="26" as="geometry" />
        </mxCell>
        <mxCell id="j923q_v8Hhribv1rcpgO-41" style="edgeStyle=orthogonalEdgeStyle;rounded=0;orthogonalLoop=1;jettySize=auto;html=1;entryX=0;entryY=0.5;entryDx=0;entryDy=0;" edge="1" parent="1" source="j923q_v8Hhribv1rcpgO-35" target="j923q_v8Hhribv1rcpgO-40">
          <mxGeometry relative="1" as="geometry" />
        </mxCell>
        <mxCell id="j923q_v8Hhribv1rcpgO-43" style="edgeStyle=orthogonalEdgeStyle;rounded=0;orthogonalLoop=1;jettySize=auto;html=1;" edge="1" parent="1" source="j923q_v8Hhribv1rcpgO-35" target="j923q_v8Hhribv1rcpgO-42">
          <mxGeometry relative="1" as="geometry" />
        </mxCell>
        <mxCell id="j923q_v8Hhribv1rcpgO-44" style="edgeStyle=orthogonalEdgeStyle;rounded=0;orthogonalLoop=1;jettySize=auto;html=1;entryX=0.5;entryY=1;entryDx=0;entryDy=0;" edge="1" parent="1" source="j923q_v8Hhribv1rcpgO-35" target="j923q_v8Hhribv1rcpgO-17">
          <mxGeometry relative="1" as="geometry">
            <Array as="points">
              <mxPoint x="750" y="460" />
              <mxPoint x="530" y="460" />
            </Array>
          </mxGeometry>
        </mxCell>
        <mxCell id="j923q_v8Hhribv1rcpgO-35" value="Curso" style="swimlane;fontStyle=1;align=center;verticalAlign=top;childLayout=stackLayout;horizontal=1;startSize=26;horizontalStack=0;resizeParent=1;resizeParentMax=0;resizeLast=0;collapsible=1;marginBottom=0;whiteSpace=wrap;html=1;" vertex="1" parent="1">
          <mxGeometry x="667" y="300" width="160" height="112" as="geometry" />
        </mxCell>
        <mxCell id="j923q_v8Hhribv1rcpgO-36" value="codigo" style="text;strokeColor=none;fillColor=none;align=left;verticalAlign=top;spacingLeft=4;spacingRight=4;overflow=hidden;rotatable=0;points=[[0,0.5],[1,0.5]];portConstraint=eastwest;whiteSpace=wrap;html=1;" vertex="1" parent="j923q_v8Hhribv1rcpgO-35">
          <mxGeometry y="26" width="160" height="26" as="geometry" />
        </mxCell>
        <mxCell id="j923q_v8Hhribv1rcpgO-37" value="" style="line;strokeWidth=1;fillColor=none;align=left;verticalAlign=middle;spacingTop=-1;spacingLeft=3;spacingRight=3;rotatable=0;labelPosition=right;points=[];portConstraint=eastwest;strokeColor=inherit;" vertex="1" parent="j923q_v8Hhribv1rcpgO-35">
          <mxGeometry y="52" width="160" height="8" as="geometry" />
        </mxCell>
        <mxCell id="j923q_v8Hhribv1rcpgO-38" value="nome" style="text;strokeColor=none;fillColor=none;align=left;verticalAlign=top;spacingLeft=4;spacingRight=4;overflow=hidden;rotatable=0;points=[[0,0.5],[1,0.5]];portConstraint=eastwest;whiteSpace=wrap;html=1;" vertex="1" parent="j923q_v8Hhribv1rcpgO-35">
          <mxGeometry y="60" width="160" height="26" as="geometry" />
        </mxCell>
        <mxCell id="j923q_v8Hhribv1rcpgO-39" value="qtdVagas" style="text;strokeColor=none;fillColor=none;align=left;verticalAlign=top;spacingLeft=4;spacingRight=4;overflow=hidden;rotatable=0;points=[[0,0.5],[1,0.5]];portConstraint=eastwest;whiteSpace=wrap;html=1;" vertex="1" parent="j923q_v8Hhribv1rcpgO-35">
          <mxGeometry y="86" width="160" height="26" as="geometry" />
        </mxCell>
        <mxCell id="j923q_v8Hhribv1rcpgO-40" value="Lista de Candidato Aprovado" style="html=1;whiteSpace=wrap;" vertex="1" parent="1">
          <mxGeometry x="950" y="270" width="110" height="50" as="geometry" />
        </mxCell>
        <mxCell id="j923q_v8Hhribv1rcpgO-42" value="Fila de espera de Candidato" style="html=1;whiteSpace=wrap;" vertex="1" parent="1">
          <mxGeometry x="950" y="380" width="110" height="50" as="geometry" />
        </mxCell>
        <mxCell id="j923q_v8Hhribv1rcpgO-45" value="Saida do arquivo" style="rounded=1;whiteSpace=wrap;html=1;" vertex="1" parent="1">
          <mxGeometry x="687" y="40" width="120" height="60" as="geometry" />
        </mxCell>
        <mxCell id="j923q_v8Hhribv1rcpgO-47" style="edgeStyle=orthogonalEdgeStyle;rounded=0;orthogonalLoop=1;jettySize=auto;html=1;entryX=0.5;entryY=0;entryDx=0;entryDy=0;" edge="1" parent="1" source="j923q_v8Hhribv1rcpgO-30" target="j923q_v8Hhribv1rcpgO-35">
          <mxGeometry relative="1" as="geometry">
            <mxPoint x="920" y="260" as="targetPoint" />
            <Array as="points">
              <mxPoint x="750" y="260" />
              <mxPoint x="747" y="260" />
            </Array>
          </mxGeometry>
        </mxCell>
      </root>
    </mxGraphModel>
  </diagram>
</mxfile>
